# xmcd CD database file
# Copyright (C) 1997 Ti Kan
# 
# Track frame offsets:
#     150
#     18445
#     41638
#     64073
#     82143
#     101593
#     121200
#     145050
#     166080
#     184065
#     203480
#     224670
# 
# Disc length: 3074 seconds
# 
# Revision: 1
# Processed by: cddbd v1.4b41PL1 Copyright (c) Steve Scherf et al.
# Submitted via: DiscPlay 4.0.4
# 
DISCID=a60c000c
DTITLE=Terry Ellis - Southern Gal
DYEAR=1900
DGENRE=
TTITLE0=She's a Lady
TTITLE1=It Ain't Over
TTITLE2=Where Ever You Are
TTITLE3=I Don't  Want to Wait Till Tomorrow
TTITLE4=What Did I Do to You
TTITLE5=Slow Dance
TTITLE6=I Don't Mind
TTITLE7=You Make Me High
TTITLE8=Back Down Memory Lane
TTITLE9=It's You That I Need [CD Bonus Track)
TTITLE10=Sista Sista
TTITLE11=Southern Gal Interlude
EXTD=
EXTT0=
EXTT1=
EXTT2=
EXTT3=
EXTT4=
EXTT5=
EXTT6=
EXTT7=
EXTT8=
EXTT9=
EXTT10=
EXTT11=
PLAYORDER=
